<svg width="96" height="95" viewBox="0 0 96 95" fill="none" xmlns="http://www.w3.org/2000/svg">
<path d="M25.6933 8.63705C25.1131 8.7858 24.8437 8.77642 24.6894 8.90888C12.3656 19.3492 5.09586 32.4657 4.11552 48.7446C3.8963 52.8861 4.6663 57.0203 6.36178 60.8053C8.04527 64.8045 10.9797 68.1504 14.7252 70.3412C18.4707 72.532 22.8255 73.4498 27.1366 72.9568C31.7864 72.4696 36.1662 71.269 39.8037 68.0625C39.7708 65.856 39.5976 63.6803 39.7348 61.5301C39.7795 59.8852 40.1821 58.2698 40.9145 56.7962C41.6468 55.3226 42.6915 54.0263 43.9756 52.9974C46.0037 51.3636 48.2334 50.9596 49.6486 52.0285C50.4475 52.6088 51.0273 53.4415 51.2944 54.3921C51.5614 55.3427 51.5 56.3556 51.1202 57.267C50.1533 59.8661 48.9473 62.3698 47.5177 64.746C46.516 66.2399 45.4025 67.6557 44.1868 68.9813C46.8217 77.1592 55.3668 79.4694 64.3667 74.3806C64.4866 73.1517 64.5371 71.8271 64.7614 70.5351C65.568 65.8873 67.7183 62.0599 71.9706 59.7552C73.567 58.8963 75.4097 58.3721 77.131 59.674C78.457 60.6657 78.7979 62.791 77.9292 65.0535C76.5455 68.6557 74.0328 71.4404 71.193 73.9573C70.2036 74.8314 69.1735 75.6433 68.1806 76.449C71.8107 89.247 85.0103 96.5567 95.6778 89.4571C95.7288 90.4208 95.9688 91.2309 95.7316 91.7443C95.3186 92.3378 94.7206 92.7777 94.0311 92.9953C87.9266 95.2059 81.9202 95.4487 76.2905 91.6424C72.1682 88.8034 68.811 84.9899 66.5175 80.5409C66.1753 79.9006 65.828 79.2764 65.4422 78.6509C65.389 78.5601 65.2525 78.5212 64.9526 78.3255C64.3214 78.4903 63.4779 78.6669 62.7161 78.922C53.0009 82.1229 47.3351 80.2894 41.1576 71.7436L38.4261 73.1484C33.1742 76.0323 27.1133 77.0911 21.1946 76.1586C11.1973 74.6071 3.74607 67.4412 1.44404 57.2801C0.210922 51.8183 0.19068 46.1525 1.38472 40.682C4.25364 27.2847 10.7015 16.0633 21.6606 7.61481C22.2304 7.16929 22.799 6.71629 23.3589 6.25709C23.4398 6.19025 23.4464 6.04375 23.6551 5.49672C21.047 5.31995 18.6776 5.94586 16.3172 6.4402C13.9569 6.93453 11.6845 7.49862 9.17742 8.07824C9.07667 7.34939 9.21841 6.60763 9.58085 5.96729C9.94328 5.32696 10.5063 4.82361 11.183 4.53483C12.5223 3.72694 13.9649 3.10412 15.4714 2.68337C19.5087 1.86803 23.572 1.11731 27.6643 0.683291C30.9181 0.363826 32.0899 1.95486 31.0719 4.80054C28.9043 10.84 26.6994 16.8703 24.4574 22.8914C24.0016 23.916 23.4824 24.9112 22.9027 25.8711C21.2202 24.4786 21.6506 23.1835 21.9778 21.9588C23.1982 17.6411 24.4037 13.3258 25.6933 8.63705ZM75.201 62.279C70.1859 63.8057 67.498 67.6218 68.0696 72.2732C71.145 69.4191 74.1054 66.8441 75.201 62.279ZM48.1254 54.827C43.8858 56.5556 42.3203 59.8891 43.5219 64.3682C45.9626 61.5647 48.079 58.8832 48.1254 54.827Z" fill="black"/>
</svg>
